<svg width="42" height="42" viewBox="0 0 42 42" fill="none" xmlns="http://www.w3.org/2000/svg">
<path d="M30 20.5C30.0034 21.8199 29.6951 23.1219 29.1 24.3C28.3944 25.7118 27.3098 26.8992 25.9674 27.7293C24.6251 28.5594 23.0782 28.9994 21.5 29C20.1801 29.0035 18.8781 28.6951 17.7 28.1L12 30L13.9 24.3C13.3049 23.1219 12.9966 21.8199 13 20.5C13.0006 18.9218 13.4406 17.3749 14.2707 16.0326C15.1008 14.6903 16.2883 13.6056 17.7 12.9C18.8781 12.305 20.1801 11.9966 21.5 12H22C24.0843 12.115 26.053 12.9948 27.5291 14.4709C29.0052 15.947 29.885 17.9157 30 20V20.5Z" stroke="#50BCFF" stroke-linecap="round" stroke-linejoin="round"/>
<circle cx="21" cy="21" r="20.5" stroke="#50BCFF"/>
</svg>
