<svg width="42" height="42" viewBox="0 0 42 42" fill="none" xmlns="http://www.w3.org/2000/svg">
<path d="M21 22.5C21.8284 22.5 22.5 21.8284 22.5 21C22.5 20.1716 21.8284 19.5 21 19.5C20.1716 19.5 19.5 20.1716 19.5 21C19.5 21.8284 20.1716 22.5 21 22.5Z" stroke="#50BCFF" stroke-linecap="round" stroke-linejoin="round"/>
<path d="M28 22.5C28.8284 22.5 29.5 21.8284 29.5 21C29.5 20.1716 28.8284 19.5 28 19.5C27.1716 19.5 26.5 20.1716 26.5 21C26.5 21.8284 27.1716 22.5 28 22.5Z" stroke="#50BCFF" stroke-linecap="round" stroke-linejoin="round"/>
<path d="M14 22.5C14.8284 22.5 15.5 21.8284 15.5 21C15.5 20.1716 14.8284 19.5 14 19.5C13.1716 19.5 12.5 20.1716 12.5 21C12.5 21.8284 13.1716 22.5 14 22.5Z" stroke="#50BCFF" stroke-linecap="round" stroke-linejoin="round"/>
<circle cx="21" cy="21" r="20.5" stroke="#50BCFF"/>
</svg>
