<svg width="20" height="20" viewBox="0 0 20 20" fill="none" xmlns="http://www.w3.org/2000/svg">
<path d="M19 9.73196C19.0034 11.0518 18.6951 12.3538 18.1 13.532C17.3944 14.9437 16.3098 16.1311 14.9674 16.9612C13.6251 17.7913 12.0782 18.2314 10.5 18.232C9.18013 18.2354 7.87812 17.927 6.7 17.332L1 19.232L2.9 13.532C2.30493 12.3538 1.99656 11.0518 2 9.73196C2.00061 8.15372 2.44061 6.60681 3.27072 5.26451C4.10083 3.92221 5.28825 2.83753 6.7 2.13196C7.87812 1.53689 9.18013 1.22852 10.5 1.23196H11C13.0843 1.34695 15.053 2.22672 16.5291 3.70282C18.0052 5.17892 18.885 7.14761 19 9.23196V9.73196Z"  stroke="black" stroke-opacity="0.9" stroke-linecap="round" stroke-linejoin="round"/>
</svg>
