<svg width="40" height="40" viewBox="0 0 40 40" fill="none" xmlns="http://www.w3.org/2000/svg">
<rect width="40" height="40" rx="20" fill="#50BCFF"/>
<path d="M24.2507 28.1678C21.8805 29.5363 18.9974 30.3364 16.4468 30.3216C13.8592 30.3065 12.0093 30.0131 10.9131 29.7696C10.5177 29.6817 10.2683 29.29 10.3562 28.8947C10.4439 28.4995 10.8357 28.2499 11.2312 28.3378C12.2576 28.5658 13.9972 28.8405 16.4554 28.8549C20.7697 28.8799 27.6004 26.1301 28.56 20.1482C28.7453 18.9933 28.6244 18.2114 28.4962 17.3836C28.3259 16.283 28.1359 15.0561 28.6382 12.9414C28.4088 12.9257 28.1886 12.8706 28.0061 12.753C27.8953 12.6816 27.7723 12.5996 27.638 12.5101C26.0647 11.4615 23.1363 9.50975 20.0041 11.3181C18.3177 12.2918 17.491 14.2139 17.5468 17.0308C17.5549 17.4358 17.2329 17.7707 16.8281 17.7787C16.4232 17.7867 16.0883 17.4649 16.0803 17.06C16.013 13.6682 17.0865 11.3089 19.2706 10.0479C20.9708 9.06631 22.8194 8.85576 24.7654 9.42183C26.3336 9.87809 27.608 10.7275 28.4514 11.2895C28.5548 11.3584 28.651 11.4226 28.7399 11.4806C28.8848 11.4883 29.2134 11.4266 29.4212 11.362C29.6809 11.2814 29.964 11.3511 30.1566 11.543C30.3492 11.7349 30.4197 12.0178 30.3398 12.2778C29.5753 14.766 29.7552 15.9285 29.9456 17.1593C30.0855 18.063 30.2301 18.9975 30.0081 20.3806C29.3856 24.2612 26.7474 26.6294 24.6437 27.9328C24.5146 28.0128 24.3834 28.0913 24.2507 28.1678Z" fill="white"/>
<path d="M19.7724 25.049C19.7722 25.0491 19.7721 25.0492 19.772 25.0492C17.7023 26.2442 15.7187 26.7401 13.8763 26.5232C9.05409 25.9557 5.86373 20.5491 5.73027 20.3191C5.56673 20.0375 5.60854 19.6816 5.83302 19.4456C5.89051 19.3851 7.26338 17.9524 9.30092 16.776C11.3705 15.5811 13.3542 15.0852 15.1967 15.3021C17.8508 15.6144 20.0097 17.4203 21.3534 18.8803C22.0877 19.6781 22.4363 20.7522 22.3098 21.8274C22.1833 22.9025 21.5948 23.8665 20.6953 24.472C20.3897 24.6778 20.0792 24.8718 19.7724 25.049ZM7.30635 20.0612C8.16098 21.324 10.7212 24.675 14.0476 25.0665C15.5694 25.2456 17.2486 24.8125 19.0386 23.779C19.0387 23.779 19.0388 23.7789 19.0389 23.7789C19.3167 23.6185 19.5984 23.4424 19.8763 23.2553C20.4205 22.8888 20.7766 22.3059 20.853 21.6559C20.9295 21.006 20.7185 20.3563 20.2741 19.8736C19.0983 18.596 17.2332 17.0186 15.0253 16.7588C13.5035 16.5796 11.8242 17.0129 10.0343 18.0463C8.8049 18.756 7.82652 19.5836 7.30635 20.0612Z" fill="white"/>
<path d="M24.77 15.0802L24.2619 15.3735C23.9112 15.576 23.4626 15.4559 23.2601 15.1051C23.0575 14.7543 23.1778 14.3057 23.5285 14.1032L24.0366 13.8099C24.3873 13.6074 24.8359 13.7275 25.0384 14.0783C25.241 14.4291 25.1207 14.8777 24.77 15.0802Z" fill="white"/>
</svg>
