<svg width="44" height="44" viewBox="0 0 44 44" fill="none" xmlns="http://www.w3.org/2000/svg">
<g clip-path="url(#clip0_15673:433)">
<path d="M26.9825 31.7959C24.0699 33.4775 20.5272 34.4606 17.3931 34.4425C14.2134 34.424 11.9402 34.0634 10.5932 33.7642C10.1074 33.6562 9.80093 33.1749 9.90892 32.6891C10.0167 32.2035 10.4981 31.8968 10.9841 32.0048C12.2453 32.2849 14.383 32.6225 17.4036 32.6402C22.705 32.671 31.0986 29.292 32.2777 21.9414C32.5055 20.5222 32.3568 19.5615 32.1994 18.5443C31.99 17.1918 31.7566 15.6843 32.3738 13.0857C32.092 13.0664 31.8214 12.9987 31.5972 12.8542C31.461 12.7664 31.3098 12.6657 31.1448 12.5557C29.2115 11.2672 25.6131 8.86888 21.7642 11.091C19.692 12.2874 18.6761 14.6493 18.7447 18.1108C18.7546 18.6084 18.3589 19.0199 17.8616 19.0297C17.364 19.0396 16.9526 18.6442 16.9427 18.1466C16.86 13.9788 18.179 11.0797 20.863 9.53017C22.9521 8.32398 25.2237 8.06526 27.615 8.76085C29.5419 9.3215 31.1079 10.3652 32.1443 11.0558C32.2713 11.1405 32.3896 11.2194 32.4988 11.2906C32.6769 11.3001 33.0807 11.2243 33.336 11.145C33.6551 11.0458 34.0029 11.1315 34.2396 11.3673C34.4763 11.6032 34.5629 11.9507 34.4648 12.2703C33.5253 15.3277 33.7464 16.7563 33.9803 18.2686C34.1523 19.3791 34.3299 20.5274 34.0572 22.227C33.2923 26.9955 30.0504 29.9055 27.4654 31.5072C27.3068 31.6054 27.1455 31.7018 26.9825 31.7959Z" fill="#50BCFF"/>
<path d="M21.4798 27.9646C21.4797 27.9647 21.4795 27.9648 21.4793 27.9649C18.9361 29.4333 16.4986 30.0426 14.2347 29.7762C8.30917 29.0788 4.38886 22.4351 4.22487 22.1526C4.02391 21.8065 4.07528 21.3692 4.35113 21.0791C4.42177 21.0048 6.10876 19.2443 8.61249 17.7988C11.1556 16.3305 13.5932 15.7211 15.8573 15.9876C19.1186 16.3714 21.7714 18.5905 23.4226 20.3845C24.3249 21.3648 24.7532 22.6847 24.5978 24.0059C24.4424 25.327 23.7192 26.5116 22.614 27.2556C22.2384 27.5085 21.8569 27.7469 21.4798 27.9646ZM6.16156 21.8356C7.21172 23.3873 10.3577 27.5051 14.4453 27.9862C16.3152 28.2062 18.3786 27.674 20.5782 26.4041C20.5782 26.404 20.5784 26.4039 20.5785 26.4039C20.9199 26.2068 21.266 25.9904 21.6075 25.7605C22.2763 25.3101 22.7138 24.5939 22.8077 23.7952C22.9017 22.9966 22.6424 22.1982 22.0964 21.6051C20.6514 20.0352 18.3597 18.0969 15.6466 17.7776C13.7766 17.5575 11.7131 18.0898 9.51362 19.3597C8.00297 20.2318 6.80074 21.2487 6.16156 21.8356Z" fill="#50BCFF"/>
<path d="M27.62 15.7157L26.9956 16.0761C26.5646 16.3249 26.0134 16.1773 25.7646 15.7463C25.5157 15.3152 25.6635 14.764 26.0944 14.5152L26.7188 14.1548C27.1497 13.9059 27.7009 14.0536 27.9498 14.4846C28.1987 14.9157 28.051 15.4668 27.62 15.7157Z" fill="#50BCFF"/>
</g>
<defs>
<clipPath id="clip0_15673:433">
<rect width="32" height="32" fill="white" transform="translate(0 16) rotate(-30)"/>
</clipPath>
</defs>
</svg>
