<svg width="96" height="96" viewBox="0 0 96 96" fill="none" xmlns="http://www.w3.org/2000/svg">
<g clip-path="url(#clip0)">
<path d="M59.0248 69.5547C52.6534 73.2332 44.9038 75.3838 38.0478 75.344C31.0922 75.3035 26.1197 74.5148 23.1732 73.8603C22.1104 73.6241 21.44 72.5712 21.6762 71.5085C21.9119 70.4462 22.965 69.7753 24.0281 70.0115C26.7872 70.6243 31.4632 71.3628 38.0708 71.4015C49.6677 71.4689 68.0287 64.0773 70.6079 47.9979C71.1063 44.8935 70.781 42.7919 70.4366 40.5667C69.9787 37.6083 69.4681 34.3104 70.8181 28.6261C70.2017 28.5838 69.6097 28.4357 69.1193 28.1197C68.8214 27.9276 68.4906 27.7073 68.1297 27.4666C63.9006 24.6482 56.0291 19.4018 47.6097 24.2627C43.0767 26.8799 40.8545 32.0464 41.0046 39.6185C41.0262 40.707 40.1607 41.6072 39.0728 41.6286C37.9843 41.6502 37.0842 40.7852 37.0627 39.6968C36.8818 30.5796 39.7671 24.238 45.6382 20.8483C50.2083 18.2098 55.1774 17.6439 60.4082 19.1654C64.6234 20.3919 68.0491 22.6751 70.3161 24.1858C70.594 24.3709 70.8528 24.5436 71.0916 24.6993C71.4811 24.72 72.3645 24.5542 72.923 24.3808C73.6211 24.1639 74.3819 24.3512 74.8996 24.867C75.4174 25.383 75.6069 26.1433 75.3922 26.8424C73.3371 33.5305 73.8207 36.6554 74.3325 39.9638C74.7086 42.3928 75.0972 44.9048 74.5006 48.6226C72.8273 59.0537 65.7357 65.4195 60.0811 68.9231C59.734 69.1379 59.3813 69.3489 59.0248 69.5547Z" fill="#50BCFF"/>
<path d="M46.9873 61.1726C46.9869 61.1728 46.9866 61.173 46.9862 61.1732C41.4229 64.3852 36.091 65.7182 31.1385 65.1353C18.1765 63.6098 9.60082 49.0768 9.24209 48.4587C8.80249 47.7017 8.91486 46.7452 9.51827 46.1106C9.6728 45.9481 13.3631 42.0969 18.84 38.9348C24.4031 35.7229 29.7353 34.3898 34.688 34.9729C41.8221 35.8123 47.6252 40.6667 51.2371 44.5911C53.2109 46.7355 54.1479 49.6229 53.8079 52.5129C53.4679 55.4029 51.886 57.994 49.4682 59.6217C48.6468 60.1748 47.8121 60.6964 46.9873 61.1726ZM13.4786 47.7654C15.7758 51.1597 22.6577 60.1674 31.5992 61.2197C35.6897 61.7012 40.2034 60.5368 45.0149 57.7589C45.0151 57.7588 45.0154 57.7586 45.0157 57.7585C45.7624 57.3273 46.5196 56.854 47.2666 56.3511C48.7295 55.3659 49.6865 53.7991 49.892 52.052C50.0976 50.3051 49.5304 48.5586 48.336 47.2611C45.1752 43.8271 40.162 39.5869 34.2272 38.8885C30.1364 38.4069 25.6226 39.5715 20.8112 42.3493C17.5067 44.2571 14.8768 46.4816 13.4786 47.7654Z" fill="#50BCFF"/>
<path d="M60.4184 34.3775L59.0526 35.166C58.1099 35.7103 56.9041 35.3874 56.3597 34.4445C55.8153 33.5015 56.1385 32.2958 57.0813 31.7516L58.447 30.963C59.3897 30.4188 60.5955 30.7417 61.1399 31.6846C61.6843 32.6276 61.3612 33.8332 60.4184 34.3775Z" fill="#50BCFF"/>
</g>
<defs>
<clipPath id="clip0">
<rect width="70" height="70" fill="white" transform="translate(0 35) rotate(-30)"/>
</clipPath>
</defs>
</svg>
