<svg width="24" height="25" viewBox="0 0 24 25" fill="#50BCFF" xmlns="http://www.w3.org/2000/svg">
<path d="M12 14.281C12.8284 14.281 13.5 13.6094 13.5 12.781C13.5 11.9526 12.8284 11.281 12 11.281C11.1716 11.281 10.5 11.9526 10.5 12.781C10.5 13.6094 11.1716 14.281 12 14.281Z" stroke="#50BCFF" stroke-opacity="0.9" stroke-linecap="round" stroke-linejoin="round"/>
<path d="M19 14.281C19.8284 14.281 20.5 13.6094 20.5 12.781C20.5 11.9526 19.8284 11.281 19 11.281C18.1716 11.281 17.5 11.9526 17.5 12.781C17.5 13.6094 18.1716 14.281 19 14.281Z" stroke="#50BCFF" stroke-opacity="0.9" stroke-linecap="round" stroke-linejoin="round"/>
<path d="M5 14.281C5.82843 14.281 6.5 13.6094 6.5 12.781C6.5 11.9526 5.82843 11.281 5 11.281C4.17157 11.281 3.5 11.9526 3.5 12.781C3.5 13.6094 4.17157 14.281 5 14.281Z" stroke="#50BCFF" stroke-opacity="0.9" stroke-linecap="round" stroke-linejoin="round"/>
</svg>