<svg width="44" height="44" viewBox="0 0 44 44" fill="none" xmlns="http://www.w3.org/2000/svg">
<g clip-path="url(#clip0)">
<path d="M26.9828 31.7964C24.0702 33.478 20.5275 34.4611 17.3933 34.443C14.2136 34.4245 11.9405 34.0639 10.5935 33.7647C10.1076 33.6567 9.80117 33.1754 9.90916 32.6896C10.0169 32.2039 10.4983 31.8973 10.9843 32.0053C12.2456 32.2854 14.3832 32.623 17.4038 32.6407C22.7053 32.6715 31.0989 29.2925 32.2779 21.9419C32.5057 20.5227 32.3571 19.562 32.1996 18.5447C31.9903 17.1923 31.7568 15.6848 32.374 13.0862C32.0922 13.0669 31.8216 12.9992 31.5974 12.8547C31.4612 12.7669 31.31 12.6662 31.145 12.5562C29.2117 11.2677 25.6133 8.86937 21.7644 11.0915C19.6922 12.2879 18.6763 14.6498 18.745 18.1113C18.7549 18.6089 18.3592 19.0204 17.8619 19.0302C17.3643 19.0401 16.9528 18.6446 16.943 18.1471C16.8603 13.9792 18.1793 11.0802 20.8632 9.53066C22.9524 8.32447 25.224 8.06575 27.6152 8.76134C29.5421 9.32199 31.1082 10.3657 32.1445 11.0563C32.2715 11.141 32.3898 11.2199 32.499 11.2911C32.6771 11.3006 33.0809 11.2248 33.3362 11.1455C33.6554 11.0463 34.0031 11.132 34.2398 11.3678C34.4765 11.6037 34.5632 11.9512 34.465 12.2708C33.5255 15.3282 33.7466 16.7568 33.9806 18.2691C34.1525 19.3796 34.3302 20.5279 34.0574 22.2275C33.2925 26.996 30.0506 29.906 27.4656 31.5077C27.307 31.6059 27.1457 31.7023 26.9828 31.7964Z" fill="#50BCFF"/>
<path d="M21.4798 27.9646C21.4797 27.9647 21.4795 27.9648 21.4793 27.9649C18.9361 29.4333 16.4986 30.0426 14.2347 29.7762C8.30917 29.0788 4.38886 22.4351 4.22487 22.1526C4.02391 21.8065 4.07528 21.3692 4.35113 21.0791C4.42177 21.0048 6.10876 19.2443 8.61249 17.7988C11.1556 16.3305 13.5932 15.7211 15.8573 15.9876C19.1186 16.3714 21.7714 18.5905 23.4226 20.3845C24.3249 21.3648 24.7532 22.6847 24.5978 24.0059C24.4424 25.327 23.7192 26.5116 22.614 27.2556C22.2384 27.5085 21.8569 27.7469 21.4798 27.9646ZM6.16156 21.8356C7.21172 23.3873 10.3577 27.5051 14.4453 27.9862C16.3152 28.2062 18.3786 27.674 20.5782 26.4041C20.5782 26.404 20.5784 26.4039 20.5785 26.4039C20.9199 26.2068 21.266 25.9904 21.6075 25.7605C22.2763 25.3101 22.7138 24.5939 22.8077 23.7952C22.9017 22.9966 22.6424 22.1982 22.0964 21.6051C20.6515 20.0352 18.3597 18.0969 15.6466 17.7776C13.7766 17.5575 11.7131 18.0898 9.51362 19.3597C8.00297 20.2318 6.80074 21.2487 6.16156 21.8356Z" fill="#50BCFF"/>
<path d="M27.6197 15.7154L26.9954 16.0759C26.5644 16.3247 26.0132 16.1771 25.7643 15.746C25.5154 15.315 25.6632 14.7638 26.0942 14.515L26.7185 14.1545C27.1495 13.9057 27.7007 14.0533 27.9496 14.4844C28.1984 14.9154 28.0507 15.4666 27.6197 15.7154Z" fill="#50BCFF"/>
</g>
<defs>
<clipPath id="clip0">
<rect width="32" height="32" fill="white" transform="translate(0 16) rotate(-30)"/>
</clipPath>
</defs>
</svg>
