<svg width="40" height="40" viewBox="0 0 40 40" fill="none" xmlns="http://www.w3.org/2000/svg">
<rect width="40" height="40" rx="20" fill="white"/>
<path d="M16.0098 24.0117L20.0098 28.0117L24.0098 24.0117" stroke="black" stroke-opacity="0.9" stroke-linecap="round" stroke-linejoin="round"/>
<path d="M20.0098 19.0117V28.0117" stroke="black" stroke-opacity="0.9" stroke-linecap="round" stroke-linejoin="round"/>
<path d="M28.889 25.1017C29.7584 24.4903 30.4103 23.6178 30.7503 22.6108C31.0902 21.6038 31.1004 20.5147 30.7794 19.5015C30.4584 18.4883 29.8228 17.6037 28.965 16.9762C28.1072 16.3487 27.0718 16.0108 26.009 16.0117H24.749C24.4482 14.8395 23.8855 13.7509 23.1031 12.8277C22.3207 11.9046 21.3391 11.1709 20.2322 10.682C19.1252 10.1931 17.9218 9.96168 16.7125 10.0052C15.5032 10.0487 14.3195 10.3659 13.2505 10.9331C12.1816 11.5002 11.2552 12.3025 10.5412 13.2795C9.82712 14.2565 9.34402 15.3827 9.12823 16.5734C8.91244 17.7641 8.96958 18.9882 9.29535 20.1537C9.62112 21.3191 10.207 22.3954 11.009 23.3017" stroke="black" stroke-opacity="0.9" stroke-linecap="round" stroke-linejoin="round"/>
</svg>
