<svg width="54" height="10" viewBox="0 0 54 10" fill="none" xmlns="http://www.w3.org/2000/svg">
<path d="M9.32031 4.66016L6.10938 5.09375L8.40625 7.56641L6.27344 9.03125L4.66797 6.05469L3.0625 9.03125L0.917969 7.56641L3.22656 5.09375L0.015625 4.66016L0.847656 2.29297L3.80078 3.55859L3.29688 0.195312H6.03906L5.53516 3.55859L8.46484 2.29297L9.32031 4.66016ZM20.2422 4.66016L17.0312 5.09375L19.3281 7.56641L17.1953 9.03125L15.5898 6.05469L13.9844 9.03125L11.8398 7.56641L14.1484 5.09375L10.9375 4.66016L11.7695 2.29297L14.7227 3.55859L14.2188 0.195312H16.9609L16.457 3.55859L19.3867 2.29297L20.2422 4.66016ZM31.1641 4.66016L27.9531 5.09375L30.25 7.56641L28.1172 9.03125L26.5117 6.05469L24.9062 9.03125L22.7617 7.56641L25.0703 5.09375L21.8594 4.66016L22.6914 2.29297L25.6445 3.55859L25.1406 0.195312H27.8828L27.3789 3.55859L30.3086 2.29297L31.1641 4.66016ZM42.0859 4.66016L38.875 5.09375L41.1719 7.56641L39.0391 9.03125L37.4336 6.05469L35.8281 9.03125L33.6836 7.56641L35.9922 5.09375L32.7812 4.66016L33.6133 2.29297L36.5664 3.55859L36.0625 0.195312H38.8047L38.3008 3.55859L41.2305 2.29297L42.0859 4.66016ZM53.0078 4.66016L49.7969 5.09375L52.0938 7.56641L49.9609 9.03125L48.3555 6.05469L46.75 9.03125L44.6055 7.56641L46.9141 5.09375L43.7031 4.66016L44.5352 2.29297L47.4883 3.55859L46.9844 0.195312H49.7266L49.2227 3.55859L52.1523 2.29297L53.0078 4.66016Z" fill="#50BCFF"/>
</svg>
