<svg width="80" height="80" viewBox="0 0 80 80" fill="none" xmlns="http://www.w3.org/2000/svg">
<circle cx="40" cy="40" r="40" fill="white"/>
<svg width="40" height="40" viewBox="0 0 40 40" fill="none" xmlns="http://www.w3.org/2000/svg" position="relative" left="25px">
<path d="M0.0683594 5.58872C0.0683594 5.58872 5.51736 0 11.2458 0C18.0931 0 20.1184 5.5183 20.1184 5.5183C20.1184 5.5183 20.817 1.04733 25.7072 1.04733C30.5973 1.04733 33.4621 4.54027 33.4621 4.54027C33.4621 4.54027 29.4807 6.91548 28.2925 7.40393C25.1617 8.69269 15.5782 11.3853 11.1072 10.2676C6.63622 9.14984 0.0683594 5.58872 0.0683594 5.58872Z" fill="#5C913B"/>
<path d="M19.0016 6.56599C19.0016 6.56599 20.1663 5.56449 25.7081 5.56449C33.0204 5.56449 39.121 10.9431 39.121 20.0136C39.121 32.9022 22.4018 39.9999 22.4018 39.9999C22.4018 39.9999 0 38.7939 0 19.9532C0 8.82159 7.54477 5.44824 12.2952 5.44824C17.8369 5.44824 19.0016 6.56599 19.0016 6.56599Z" fill="#FF886C"/>
<path d="M0.0683594 5.58871C0.0683594 5.58871 5.51736 0 11.2458 0C18.0931 0 20.1184 5.5183 20.1184 5.5183C20.1184 5.5183 15.5782 11.3864 11.1072 10.2687C6.63622 9.15096 0.0683594 5.58871 0.0683594 5.58871Z" fill="#77B255"/>
<path d="M24.5901 33.3922C24.3778 33.3922 24.162 33.3307 23.9709 33.2044C23.4567 32.8613 23.3181 32.1683 23.6613 31.6541C23.6781 31.6295 25.709 28.4048 25.709 21.097C25.709 13.8932 20.592 9.71617 20.5394 9.67481C20.0577 9.28919 19.9794 8.58613 20.3651 8.10438C20.7518 7.62263 21.4549 7.54439 21.9366 7.93001C22.1814 8.12562 27.9445 12.8302 27.9445 21.097C27.9445 29.1671 25.6207 32.7461 25.5212 32.8948C25.3066 33.2178 24.9512 33.3922 24.5901 33.3922Z" fill="#DD2E44"/>
</svg>
<circle cx="40" cy="40" r="39.5" stroke="black" stroke-opacity="0.05"/>
</svg>
