<svg width="24" height="24" viewBox="0 0 24 24" fill="none" xmlns="http://www.w3.org/2000/svg">
<rect x="0.25" y="0.25" width="23.5" height="23.5" rx="11.75" stroke="black" stroke-opacity="0.05" stroke-width="0.5"/>
<path d="M6.02051 7.67661C6.02051 7.67661 7.65521 6 9.37374 6C11.4279 6 12.0355 7.65549 12.0355 7.65549C12.0355 7.65549 12.2451 6.3142 13.7121 6.3142C15.1792 6.3142 16.0386 7.36208 16.0386 7.36208C16.0386 7.36208 14.8442 8.07464 14.4877 8.22118C13.5485 8.60781 10.6734 9.4156 9.33216 9.08028C7.99087 8.74495 6.02051 7.67661 6.02051 7.67661Z" fill="#5C913B"/>
<path d="M11.7005 7.96984C11.7005 7.96984 12.0499 7.6694 13.7124 7.6694C15.9061 7.6694 17.7363 9.28297 17.7363 12.0041C17.7363 15.8707 12.7205 18 12.7205 18C12.7205 18 6 17.6382 6 11.986C6 8.64653 8.26343 7.63452 9.68855 7.63452C11.3511 7.63452 11.7005 7.96984 11.7005 7.96984Z" fill="#FF886C"/>
<path d="M6.02051 7.67661C6.02051 7.67661 7.65521 6 9.37374 6C11.4279 6 12.0355 7.65549 12.0355 7.65549C12.0355 7.65549 10.6734 9.41593 9.33216 9.08061C7.99087 8.74529 6.02051 7.67661 6.02051 7.67661Z" fill="#77B255"/>
<path d="M13.3771 16.0176C13.3134 16.0176 13.2487 15.9991 13.1914 15.9612C13.0371 15.8583 12.9955 15.6504 13.0985 15.4961C13.1035 15.4888 13.7128 14.5214 13.7128 12.329C13.7128 10.1679 12.1777 8.91475 12.1619 8.90235C12.0174 8.78666 11.9939 8.57574 12.1096 8.43122C12.2256 8.28669 12.4366 8.26322 12.5811 8.37891C12.6545 8.43759 14.3834 9.84896 14.3834 12.329C14.3834 14.75 13.6863 15.8237 13.6565 15.8683C13.5921 15.9653 13.4854 16.0176 13.3771 16.0176Z" fill="#DD2E44"/>
</svg>
