<svg width="24" height="24" viewBox="0 0 24 24" fill="none" xmlns="http://www.w3.org/2000/svg">
<path d="M10.0211 7.60146C11.9651 7.21896 12.557 7.98096 13.5176 7.62666C14.4782 7.27236 13.5455 8.47266 13.2941 8.67906C13.0421 8.88546 10.8518 10.1218 9.90202 9.66846C8.95222 9.21516 8.94742 7.81266 10.0211 7.60146Z" fill="#5C913B"/>
<path d="M11.0999 11.3999C11.0087 11.3999 10.9184 11.3585 10.8596 11.2799C10.6535 11.0051 10.4672 10.6934 10.2701 10.3631C9.58974 9.22455 8.81844 7.93365 6.83454 7.49265C6.67284 7.45665 6.57084 7.29645 6.60684 7.13475C6.64284 6.97275 6.80304 6.87135 6.96474 6.90705C9.20094 7.40385 10.0793 8.87415 10.7852 10.0556C10.9742 10.3718 11.1524 10.6703 11.3396 10.9199C11.4392 11.0525 11.4122 11.2406 11.2796 11.3399C11.2256 11.3804 11.1626 11.3999 11.0999 11.3999Z" fill="#77B255"/>
<path d="M16.8891 16.0601C16.8897 16.055 16.8882 16.0517 16.8882 16.0472C17.7204 14.4467 17.6823 11.5133 15.8844 9.71514C14.1441 7.97514 11.7804 7.96884 10.2543 8.49504C9.78062 8.67924 9.37922 8.51484 9.10982 8.78454C8.84552 9.04884 9.00452 9.60024 8.89562 9.93024C7.94492 11.4908 7.87412 13.8377 9.70202 15.6653C11.1906 17.1539 12.8334 17.7179 15.696 17.1212C15.6966 17.1206 15.6975 17.1209 15.6984 17.1206C16.0428 17.0552 16.5834 17.2775 16.7682 17.0924C17.0937 16.7669 16.8609 16.385 16.8891 16.0601Z" fill="#FFCC4D"/>
<path d="M9.06236 8.57492C9.06236 8.57492 7.78136 8.39792 7.00526 9.95462C6.22916 11.511 7.17986 12.6921 7.09226 13.7505C7.00436 14.8095 7.56206 14.13 7.87856 13.617C8.19506 13.104 9.14756 12.1485 9.35996 10.8363C9.57206 9.52352 9.33896 8.89892 9.06236 8.57492Z" fill="#77B255"/>
</svg>
