<svg width="42" height="42" viewBox="0 0 42 42" fill="none" xmlns="http://www.w3.org/2000/svg">
<path fill-rule="evenodd" clip-rule="evenodd" d="M23 21C23 22.1046 22.1046 23 21 23C19.8954 23 19 22.1046 19 21C19 19.8954 19.8954 19 21 19C22.1046 19 23 19.8954 23 21ZM22 21C22 21.5523 21.5523 22 21 22C20.4477 22 20 21.5523 20 21C20 20.4477 20.4477 20 21 20C21.5523 20 22 20.4477 22 21Z" fill="#50BCFF"/>
<path fill-rule="evenodd" clip-rule="evenodd" d="M30 21C30 22.1046 29.1046 23 28 23C26.8954 23 26 22.1046 26 21C26 19.8954 26.8954 19 28 19C29.1046 19 30 19.8954 30 21ZM29 21C29 21.5523 28.5523 22 28 22C27.4477 22 27 21.5523 27 21C27 20.4477 27.4477 20 28 20C28.5523 20 29 20.4477 29 21Z" fill="#50BCFF"/>
<path fill-rule="evenodd" clip-rule="evenodd" d="M16 21C16 22.1046 15.1046 23 14 23C12.8954 23 12 22.1046 12 21C12 19.8954 12.8954 19 14 19C15.1046 19 16 19.8954 16 21ZM15 21C15 21.5523 14.5523 22 14 22C13.4477 22 13 21.5523 13 21C13 20.4477 13.4477 20 14 20C14.5523 20 15 20.4477 15 21Z" fill="#50BCFF"/>
<path fill-rule="evenodd" clip-rule="evenodd" d="M21 41C32.0457 41 41 32.0457 41 21C41 9.9543 32.0457 1 21 1C9.9543 1 1 9.9543 1 21C1 32.0457 9.9543 41 21 41ZM21 42C32.598 42 42 32.598 42 21C42 9.40202 32.598 0 21 0C9.40202 0 0 9.40202 0 21C0 32.598 9.40202 42 21 42Z" fill="#50BCFF"/>
</svg>
