<svg width="42" height="42" viewBox="0 0 42 42" fill="none" xmlns="http://www.w3.org/2000/svg">
<circle cx="21" cy="21" r="20.5" stroke="#fff"/>
<path d="M19 27V15C19 13.8954 18.1046 13 17 13C15.8954 13 15 13.8954 15 15V27C15 28.1046 15.8954 29 17 29C18.1046 29 19 28.1046 19 27Z" stroke="#fff" stroke-linecap="round" stroke-linejoin="round"/>
<path d="M27 27V15C27 13.8954 26.1046 13 25 13C23.8954 13 23 13.8954 23 15V27C23 28.1046 23.8954 29 25 29C26.1046 29 27 28.1046 27 27Z" stroke="#fff" stroke-linecap="round" stroke-linejoin="round"/>
</svg>
