<svg width="24" height="24" viewBox="0 0 24 24" fill="none" xmlns="http://www.w3.org/2000/svg">
<path d="M11.998 1C11.2024 1 10.4393 1.31607 9.87673 1.87868C9.31412 2.44129 8.99805 3.20435 8.99805 4V12C8.99805 12.7956 9.31412 13.5587 9.87673 14.1213C10.4393 14.6839 11.2024 15 11.998 15C12.7937 15 13.5568 14.6839 14.1194 14.1213C14.682 13.5587 14.998 12.7956 14.998 12V4C14.998 3.20435 14.682 2.44129 14.1194 1.87868C13.5568 1.31607 12.7937 1 11.998 1V1Z" stroke="#50BCFF" stroke-linecap="round" stroke-linejoin="round"/>
<path d="M18.998 10V12C18.998 13.8565 18.2605 15.637 16.9478 16.9497C15.635 18.2625 13.8546 19 11.998 19C10.1415 19 8.36105 18.2625 7.0483 16.9497C5.73554 15.637 4.99805 13.8565 4.99805 12V10" stroke="#50BCFF" stroke-linecap="round" stroke-linejoin="round"/>
<path d="M11.998 19V23" stroke="#50BCFF" stroke-linecap="round" stroke-linejoin="round"/>
</svg>
