<svg width="80" height="80" viewBox="0 0 80 80" fill="none" xmlns="http://www.w3.org/2000/svg">
<circle cx="40" cy="40" r="39.5" stroke="black" stroke-opacity="0.05"/>
<path d="M51 47C51 47.5304 50.7893 48.0391 50.4142 48.4142C50.0391 48.7893 49.5304 49 49 49H31C30.4696 49 29.9609 48.7893 29.5858 48.4142C29.2107 48.0391 29 47.5304 29 47V36C29 35.4696 29.2107 34.9609 29.5858 34.5858C29.9609 34.2107 30.4696 34 31 34H35L37 31H43L45 34H49C49.5304 34 50.0391 34.2107 50.4142 34.5858C50.7893 34.9609 51 35.4696 51 36V47Z" stroke="#50BCFF" stroke-linecap="round" stroke-linejoin="round"/>
<path d="M40 45C42.2091 45 44 43.2091 44 41C44 38.7909 42.2091 37 40 37C37.7909 37 36 38.7909 36 41C36 43.2091 37.7909 45 40 45Z" stroke="#50BCFF" stroke-linecap="round" stroke-linejoin="round"/>
</svg>
