<svg width="24" height="20" viewBox="0 0 24 20" fill="none" xmlns="http://www.w3.org/2000/svg">
<path d="M17 19V17C17 15.9391 16.5786 14.9217 15.8284 14.1716C15.0783 13.4214 14.0609 13 13 13H5C3.93913 13 2.92172 13.4214 2.17157 14.1716C1.42143 14.9217 1 15.9391 1 17V19"  stroke="black" stroke-opacity="0.9" stroke-linecap="round" stroke-linejoin="round"/>
<path d="M9.0003 9C11.2094 9 13.0003 7.20914 13.0003 5C13.0003 2.79086 11.2094 1 9.0003 1C6.79117 1 5.00031 2.79086 5.00031 5C5.00031 7.20914 6.79117 9 9.0003 9Z"  stroke="black" stroke-opacity="0.9" stroke-linecap="round" stroke-linejoin="round"/>
<path d="M22.9994 18.9999V16.9999C22.9988 16.1136 22.7038 15.2527 22.1608 14.5522C21.6178 13.8517 20.8576 13.3515 19.9995 13.1299"  stroke="black" stroke-opacity="0.9" stroke-linecap="round" stroke-linejoin="round"/>
<path d="M15.9991 1.13013C16.8596 1.35043 17.6222 1.85083 18.1668 2.55244C18.7114 3.25405 19.007 4.11696 19.007 5.00513C19.007 5.8933 18.7114 6.75621 18.1668 7.45781C17.6222 8.15942 16.8596 8.65982 15.9991 8.88013"  stroke="black" stroke-opacity="0.9" stroke-linecap="round" stroke-linejoin="round"/>
</svg>
